<svg width="64" height="64" viewBox="0 0 64 64" fill="none" xmlns="http://www.w3.org/2000/svg">
<rect x="2.01562" y="2.51978" width="60.4724" height="60.4724" rx="10" fill="#1F1F1F"/>
<path d="M51.9782 18.6789C51.9782 24.1112 43.1692 28.5157 32.3045 28.5157C21.4399 28.5157 12.6309 24.1112 12.6309 18.6789M51.9782 18.6789C51.9782 13.2466 43.1692 8.84204 32.3045 8.84204C21.4399 8.84204 12.6309 13.2466 12.6309 18.6789M51.9782 18.6789V45.5066C51.9782 50.939 43.1692 55.3435 32.3045 55.3435C21.4399 55.3435 12.6309 50.939 12.6309 45.5066V18.6789M51.9782 18.6789V27.6215M12.6309 18.6789V27.6215M51.9782 27.6215V36.5641C51.9782 41.9964 43.1692 46.4009 32.3045 46.4009C21.4399 46.4009 12.6309 41.9964 12.6309 36.5641V27.6215M51.9782 27.6215C51.9782 33.0538 43.1692 37.4583 32.3045 37.4583C21.4399 37.4583 12.6309 33.0538 12.6309 27.6215" stroke="#F3F3F3" stroke-width="1.8" stroke-linecap="round" stroke-linejoin="round"/>
<path d="M44.6983 18.6227C44.625 18.6943 44.5463 18.7604 44.4775 18.8364C42.3941 21.1531 39.9567 22.9762 37.0562 24.1476C35.4494 24.7958 33.781 25.1463 32.0401 25.1043C30.4271 25.0649 28.8811 24.701 27.3987 24.0814C24.491 22.8663 22.0446 21.0136 19.9774 18.646C19.9622 18.6281 19.9506 18.6066 19.9121 18.5512C20.2975 18.1426 20.673 17.7134 21.0807 17.3173C22.7984 15.6462 24.7145 14.2567 26.9087 13.274C28.7855 12.4327 30.7436 11.9588 32.8126 12.05C34.5383 12.126 36.1781 12.5721 37.7438 13.291C40.368 14.4954 42.6132 16.2077 44.5231 18.3679C44.5749 18.426 44.6384 18.4743 44.6965 18.527C44.6983 18.5583 44.6983 18.5905 44.6983 18.6227ZM32.311 13.4931C29.5258 13.4922 27.2341 15.7803 27.2288 18.5664C27.2234 21.3507 29.5079 23.6451 32.2967 23.6558C35.0873 23.6665 37.3951 21.3623 37.3915 18.5691C37.387 15.7821 35.0971 13.494 32.311 13.4931ZM42.7375 18.5735C41.2559 17.1018 39.6384 15.8733 37.7447 14.9049C39.2128 17.3709 39.2128 19.7797 37.7456 22.2431C39.6411 21.2738 41.2586 20.0435 42.7375 18.5735ZM21.8828 18.5744C23.3652 20.0462 24.9818 21.2747 26.8747 22.2431C25.4057 19.777 25.4065 17.3683 26.8756 14.9013C24.9818 15.8822 23.3617 17.1072 21.8828 18.5744Z" fill="#F3F3F3"/>
<path d="M30.1328 18.5736C30.1328 17.3639 31.1038 16.3964 32.3163 16.3982C33.5243 16.4 34.489 17.3728 34.4863 18.587C34.4837 19.7816 33.5126 20.7499 32.3154 20.7517C31.1056 20.7526 30.1328 19.7825 30.1328 18.5736ZM33.0352 18.5808C33.0396 18.199 32.7008 17.8538 32.3163 17.8494C31.9345 17.8449 31.5894 18.1838 31.5849 18.5674C31.5804 18.9492 31.9193 19.2943 32.3038 19.2988C32.6847 19.3041 33.0298 18.9652 33.0352 18.5808Z" fill="#F3F3F3"/>
</svg>
