<svg width="127" height="127" viewBox="0 0 127 127" fill="none" xmlns="http://www.w3.org/2000/svg">
<path d="M107.156 33.7344C107.156 45.7888 87.6088 55.5625 63.5 55.5625C39.3912 55.5625 19.8438 45.7888 19.8438 33.7344M107.156 33.7344C107.156 21.68 87.6088 11.9062 63.5 11.9062C39.3912 11.9062 19.8438 21.68 19.8438 33.7344M107.156 33.7344V93.2656C107.156 105.32 87.6088 115.094 63.5 115.094C39.3912 115.094 19.8438 105.32 19.8438 93.2656V33.7344M107.156 33.7344V53.5781M19.8438 33.7344V53.5781M107.156 53.5781V73.4219C107.156 85.4763 87.6088 95.25 63.5 95.25C39.3912 95.25 19.8438 85.4763 19.8438 73.4219V53.5781M107.156 53.5781C107.156 65.6325 87.6088 75.4062 63.5 75.4062C39.3912 75.4062 19.8438 65.6325 19.8438 53.5781" stroke="black" stroke-width="4" stroke-linecap="round" stroke-linejoin="round"/>
<path d="M91.001 33.6098C90.8383 33.7685 90.6637 33.9153 90.511 34.084C85.888 39.2248 80.4794 43.2703 74.043 45.8695C70.4776 47.308 66.7753 48.0857 62.9122 47.9925C59.3329 47.9052 55.9024 47.0977 52.6128 45.7227C46.1605 43.0263 40.7321 38.9153 36.1448 33.6614C36.1111 33.6217 36.0853 33.5741 36 33.4511C36.8551 32.5443 37.6885 31.592 38.5932 30.713C42.4046 27.0047 46.6566 23.9215 51.5255 21.741C55.6901 19.8739 60.0353 18.8224 64.6265 19.0247C68.4558 19.1934 72.0946 20.1834 75.5688 21.7787C81.3921 24.4512 86.3741 28.2508 90.6121 33.0443C90.7272 33.1733 90.8681 33.2804 90.9971 33.3975C91.001 33.4669 91.001 33.5384 91.001 33.6098ZM63.5134 22.2271C57.333 22.2251 52.2477 27.3024 52.2358 33.4848C52.2239 39.6633 57.2933 44.7544 63.4817 44.7782C69.674 44.8021 74.795 39.6891 74.787 33.4907C74.7771 27.3063 69.6958 22.229 63.5134 22.2271ZM86.6499 33.5007C83.3623 30.2349 79.773 27.5087 75.5707 25.3599C78.8286 30.8321 78.8286 36.1772 75.5727 41.6434C79.779 39.4926 83.3682 36.7625 86.6499 33.5007ZM40.3729 33.5027C43.6626 36.7685 47.2498 39.4946 51.4501 41.6434C48.1903 36.1713 48.1922 30.8261 51.4521 25.352C47.2498 27.5286 43.6546 30.2468 40.3729 33.5027Z" fill="black"/>
<path d="M58.6816 33.5006C58.6816 30.8162 60.8364 28.6694 63.5268 28.6733C66.2073 28.6773 68.3481 30.836 68.3422 33.5304C68.3362 36.1812 66.1815 38.3299 63.5248 38.3339C60.8403 38.3359 58.6816 36.1831 58.6816 33.5006ZM65.122 33.5165C65.1319 32.6693 64.38 31.9034 63.5268 31.8935C62.6796 31.8836 61.9137 32.6356 61.9038 33.4868C61.8939 34.334 62.6459 35.0998 63.499 35.1097C64.3442 35.1216 65.1101 34.3697 65.122 33.5165Z" fill="black"/>
</svg>
