<!-- sprite.svg -->
<svg xmlns="http://www.w3.org/2000/svg" xmlns:xlink="http://www.w3.org/1999/xlink">
  <defs>
    <symbol id="bar-arrow-down">
      <path stroke-linecap="round" stroke-linejoin="round" d="M3 4.5h14.25M3 9h9.75M3 13.5h9.75m4.5-4.5v12m0 0-3.75-3.75M17.25 21 21 17.25" />
    </symbol>
    <symbol id="bar-arrow-up">
      <path stroke-linecap="round" stroke-linejoin="round" d="M3 4.5h14.25M3 9h9.75M3 13.5h5.25m5.25-.75L17.25 9m0 0L21 12.75M17.25 9v12" />
    </symbol>
    <symbol id="book-open">
      <path stroke-linecap="round" stroke-linejoin="round" d="M12 6.042A8.967 8.967 0 0 0 6 3.75c-1.052 0-2.062.18-3 .512v14.25A8.987 8.987 0 0 1 6 18c2.305 0 4.408.867 6 2.292m0-14.25a8.966 8.966 0 0 1 6-2.292c1.052 0 2.062.18 3 .512v14.25A8.987 8.987 0 0 0 18 18a8.967 8.967 0 0 0-6 2.292m0-14.25v14.25" />
    </symbol>
    <symbol id="slash">
      <path stroke-linecap="round" stroke-linejoin="round" d="m9 20.247 6-16.5" />
    </symbol>
    <symbol id="link">
      <path stroke-linecap="round" stroke-linejoin="round" d="M13.19 8.688a4.5 4.5 0 0 1 1.242 7.244l-4.5 4.5a4.5 4.5 0 0 1-6.364-6.364l1.757-1.757m13.35-.622 1.757-1.757a4.5 4.5 0 0 0-6.364-6.364l-4.5 4.5a4.5 4.5 0 0 0 1.242 7.244" />
    </symbol>
    <symbol id="user-circle">
      <path stroke-linecap="round" stroke-linejoin="round" d="M17.982 18.725A7.488 7.488 0 0 0 12 15.75a7.488 7.488 0 0 0-5.982 2.975m11.963 0a9 9 0 1 0-11.963 0m11.963 0A8.966 8.966 0 0 1 12 21a8.966 8.966 0 0 1-5.982-2.275M15 9.75a3 3 0 1 1-6 0 3 3 0 0 1 6 0Z" />
    </symbol>
    <symbol id="x-circle">
      <path stroke-linecap="round" stroke-linejoin="round" d="m9.75 9.75 4.5 4.5m0-4.5-4.5 4.5M21 12a9 9 0 1 1-18 0 9 9 0 0 1 18 0Z" />
    </symbol>
    <symbol id="telegram">
      <path
        d='M4.87938 25.4047C23.9381 17.0789 36.6548 11.5884 43.0131 8.93327C61.1646 1.3613 64.9486 0.041949 67.4004 0.000975226C68.3038 -0.0182924 69.1903 0.248371 69.9339 0.763086C70.4561 1.21756 70.7887 1.85234 70.8656 2.54135C70.9961 3.39522 71.0317 4.26096 70.9718 5.1227C69.9911 15.4891 65.7331 40.6388 63.5674 52.2508C62.6521 57.1676 60.8459 58.8066 59.0969 58.9705C56.0976 59.2491 53.6539 57.5118 50.9488 55.5779C50.2378 55.0698 49.5022 54.5371 48.7421 54.0454C45.7346 52.0623 43.4136 50.4807 41.0925 48.8909C38.9594 47.4323 36.8182 45.9818 34.1457 44.2117C28.5965 40.5405 30.9175 38.2951 34.0232 35.2958C34.5435 34.7961 35.0557 34.288 35.5596 33.7716C35.7885 33.5339 36.9081 32.4932 38.4854 31.0182L38.7535 30.7681C43.8816 25.9836 53.3313 17.167 53.5722 16.1283C53.6131 15.9562 53.6539 15.3088 53.2698 14.9728C52.8939 14.6286 52.3218 14.7434 51.9132 14.8417C51.3411 14.9728 42.1468 21.0615 24.3385 33.116C21.7314 34.9189 19.3695 35.7875 17.2446 35.7383C14.9154 35.6892 10.4205 34.419 7.086 33.3291L5.65579 32.8784L5.64466 32.8748C2.25868 31.8031 -0.228276 31.016 0.0166363 29.0268C0.163744 27.8468 1.79011 26.634 4.87938 25.4047Z'
        fill='currentColor'
      />
    </symbol>
  </defs>
</svg>
