<?xml version="1.0" standalone="no" ?>
<!DOCTYPE svg PUBLIC "-//W3C//DTD SVG 1.1//EN" "http://www.w3.org/Graphics/SVG/1.1/DTD/svg11.dtd">
<svg width="240px" height="347px" viewBox="0 0 240 347" style="background-color: #ffffff00" xmlns="http://www.w3.org/2000/svg" xmlns:xlink="http://www.w3.org/1999/xlink" version="1.1" >
<path stroke="none" fill="#000000" transform="matrix(0.05 0 0 0.05 -367 -312)" d="M 9122.62,11736.8 L 9156.64,11756.4 L 9156.64,12646 L 9122.62,12665.6 L 9122.62,11736.8 Z " />
<path stroke="none" fill="#000000" transform="matrix(0.05 0 0 0.05 -367 -312)" d="M 9232.06,11809.8 L 9266.06,11809.8 L 9266.06,12592.6 L 9232.06,12592.6 L 9232.06,11809.8 Z " />
<path stroke="none" fill="#000000" transform="matrix(0.05 0 0 0.05 -367 -312)" d="M 9122.62,12665.6 L 9156.64,12646 L 9927.2,13091 L 9927.2,13130.3 L 9122.62,12665.6 Z " />
<path stroke="none" fill="#000000" transform="matrix(0.05 0 0 0.05 -367 -312)" d="M 9927.2,13130.3 L 9927.2,13091 L 10698,12646 L 10714.6,12655.6 L 10718,12673 L 9927.2,13130.3 Z " />
<path stroke="none" fill="#000000" transform="matrix(0.05 0 0 0.05 -367 -312)" d="M 9935.71,12998.9 L 9918.71,12969.5 L 10597,12577.9 L 10614,12607.3 L 9935.71,12998.9 Z " />
<path stroke="none" fill="#000000" transform="matrix(0.05 0 0 0.05 -367 -312)" d="M 10731.1,12641.5 L 10714.6,12655.6 L 10698,12646 L 10698,11756.4 L 10714.6,11746.8 L 10731.2,11756.4 L 10731.1,12641.5 Z " />
<path stroke="none" fill="#000000" transform="matrix(0.05 0 0 0.05 -367 -312)" d="M 10714.6,11727.6 L 10714.6,11746.8 L 10698,11756.4 L 9927.2,11311.4 L 9927.2,11292.2 L 9943.84,11282.6 L 10714.6,11727.6 Z " />
<path stroke="none" fill="#000000" transform="matrix(0.05 0 0 0.05 -367 -312)" d="M 10614,11795.1 L 10597,11824.5 L 9918.71,11432.9 L 9935.71,11403.5 L 10614,11795.1 Z " />
<path stroke="none" fill="#000000" transform="matrix(0.05 0 0 0.05 -367 -312)" d="M 9910.56,11282.6 L 9927.2,11292.2 L 9927.2,11311.4 L 9156.64,11756.4 L 9122.62,11736.8 L 9910.56,11282.6 Z " />
<path stroke="none" fill="#000000" transform="matrix(0.05 0 0 0.05 -367 -312)" d="M 10731.2,11756.4 L 10714.6,11746.8 L 10714.6,11727.6 L 11485.2,11282.6 L 11501.8,11292.2 L 11497.7,11313.6 L 10731.2,11756.4 Z " />
<path stroke="none" fill="#000000" transform="matrix(0.05 0 0 0.05 -367 -312)" d="M 11518.6,11286.3 L 11501.8,11292.2 L 11485.2,11282.6 L 11485.2,10392.8 L 11519.2,10373.2 L 11518.6,11286.3 Z " />
<path stroke="none" fill="#000000" transform="matrix(0.05 0 0 0.05 -367 -312)" d="M 11519.2,10373.2 L 11485.2,10392.8 L 10714.6,9948.01 L 10714.6,9928.8 L 10743.3,9926.74 L 11519.2,10373.2 Z " />
<path stroke="none" fill="#000000" transform="matrix(0.05 0 0 0.05 -367 -312)" d="M 10698.1,9919.12 L 10714.6,9928.8 L 10714.6,9948.01 L 9943.84,10392.8 L 9927.2,10383.2 L 9927.2,10364 L 10698.1,9919.12 Z " />
<path stroke="none" fill="#000000" transform="matrix(0.05 0 0 0.05 -367 -312)" d="M 9910.56,10392.8 L 9927.2,10383.2 L 9943.84,10392.8 L 9943.84,11282.6 L 9927.2,11292.2 L 9910.56,11282.6 L 9910.56,10392.8 Z " />
<text x="0" y="0" stroke="none" fill="#000000" transform="matrix(0.05 0 0 0.05 160.064 147.597)" font-style="normal" font-weight="normal" font-size="480px" font-family="Helvetica" >
N</text>
<path stroke="none" fill="#000000" transform="matrix(0.05 0 0 0.05 -367 -312)" d="M 10730.4,9905.11 L 10714.6,9928.8 L 10698.1,9919.12 L 10697.6,9230.65 L 10731.6,9230.65 L 10730.4,9905.11 Z " />
<path stroke="none" fill="#000000" transform="matrix(0.05 0 0 0.05 -367 -312)" d="M 10522.3,8889.14 L 10505.3,8918.59 L 9927.33,8584.35 L 9927.32,8545.06 L 10522.3,8889.14 Z " />
<path stroke="none" fill="#000000" transform="matrix(0.05 0 0 0.05 -367 -312)" d="M 9927.32,8545.06 L 9927.33,8584.35 L 9156.64,9029.41 L 9140,9019.8 L 9139.03,9001.1 L 9927.32,8545.06 Z " />
<path stroke="none" fill="#000000" transform="matrix(0.05 0 0 0.05 -367 -312)" d="M 9123.32,9028.31 L 9140,9019.8 L 9156.64,9029.41 L 9156.64,9919.19 L 9122.62,9938.83 L 9123.32,9028.31 Z " />
<path stroke="none" fill="#000000" transform="matrix(0.05 0 0 0.05 -367 -312)" d="M 9122.62,9938.83 L 9156.64,9919.19 L 9927.2,10364 L 9927.2,10383.2 L 9910.56,10392.8 L 9122.62,9938.83 Z " />
<path stroke="none" fill="#000000" transform="matrix(0.05 0 0 0.05 -367 -312)" d="M 9240.57,9880.54 L 9257.57,9851.1 L 9935.71,10242.5 L 9918.71,10272 L 9240.57,9880.54 Z " />
<path stroke="none" fill="#000000" transform="matrix(0.05 0 0 0.05 -367 -312)" d="M 11497.7,11313.6 L 11501.8,11292.2 L 11518.6,11286.3 L 12089,12002 L 12047.9,12005 L 11497.7,11313.6 Z " />
<path stroke="none" fill="#000000" transform="matrix(0.05 0 0 0.05 -367 -312)" d="M 11461.7,11444.2 L 11488.3,11423.1 L 11949.5,12002.6 L 11922.9,12023.8 L 11461.7,11444.2 Z " />
<text x="0" y="0" stroke="none" fill="#000000" transform="matrix(0.05 0 0 0.05 205.004 336.137)" font-style="normal" font-weight="normal" font-size="480px" font-family="Helvetica" >
NH</text>
<path stroke="none" fill="#000000" transform="matrix(0.05 0 0 0.05 -367 -312)" d="M 10718,12673 L 10714.6,12655.6 L 10731.1,12641.5 L 11442.6,12747.8 L 11437.6,12781.4 L 10718,12673 Z " />
<path stroke="none" fill="#000000" transform="matrix(0.05 0 0 0.05 -367 -312)" d="M 11757,12575.9 L 11727.5,12558.9 L 12047.9,12005 L 12089,12002 L 11757,12575.9 Z " />
<path stroke="none" fill="#000000" transform="matrix(0.05 0 0 0.05 -367 -312)" d="M 9139.03,9001.1 L 9140,9019.8 L 9123.32,9028.31 L 8331.12,8661.34 L 8364.29,8452.11 L 9139.03,9001.1 Z " />
<text x="0" y="0" stroke="none" fill="#000000" transform="matrix(0.05 0 0 0.05 199.424 170.317)" font-style="normal" font-weight="normal" font-size="480px" font-family="Helvetica" >
H</text>
<path stroke="none" fill="#000000" transform="matrix(0.05 0 0 0.05 -367 -312)" d="M 10743.3,9926.74 L 10714.6,9928.8 L 10730.4,9905.11 L 11241.8,9511.39 L 11339.7,9680.77 L 10743.3,9926.74 Z " />
<text x="0" y="0" stroke="none" fill="#000000" transform="matrix(0.05 0 0 0.05 41.974 79.4174)" font-style="normal" font-weight="normal" font-size="480px" font-family="Helvetica" >
N</text>
<path stroke="none" fill="#000000" transform="matrix(0.05 0 0 0.05 -367 -312)" d="M 8364.29,8452.11 L 8331.12,8661.34 L 8335.8,7867.05 L 8369.8,7867.05 L 8364.29,8452.11 Z " />
<text x="0" y="0" stroke="none" fill="#000000" transform="matrix(0.05 0 0 0.05 1.94601 147.597)" font-style="normal" font-weight="normal" font-size="480px" font-family="Helvetica" >
O</text>
<path stroke="none" fill="#000000" transform="matrix(0.05 0 0 0.05 -367 -312)" d="M 8398.83,8581.97 L 8415.83,8611.41 L 7788.16,8973.89 L 7771.15,8944.45 L 8398.83,8581.97 Z " />
<path stroke="none" fill="#000000" transform="matrix(0.05 0 0 0.05 -367 -312)" d="M 8344.3,8487.49 L 8361.3,8516.94 L 7733.61,8879.43 L 7716.6,8849.98 L 8344.3,8487.49 Z " />
<path stroke="none" fill="#000000" transform="matrix(0.05 0 0 0.05 -367 -312)" d="M 8560.55,7555.91 L 8543.55,7526.46 L 9123.35,7192.34 L 9157.38,7211.97 L 8560.55,7555.91 Z " />
<path stroke="none" fill="#000000" transform="matrix(0.05 0 0 0.05 -367 -312)" d="M 8160.48,7525.56 L 8143.49,7555 L 7548.22,7211.97 L 7582.25,7192.34 L 8160.48,7525.56 Z " />
<path stroke="none" fill="#000000" transform="matrix(0.05 0 0 0.05 -367 -312)" d="M 7582.25,7192.34 L 7548.22,7211.97 L 7548.6,6292.8 L 7582.6,6292.8 L 7582.25,7192.34 Z " />
<path stroke="none" fill="#000000" transform="matrix(0.05 0 0 0.05 -367 -312)" d="M 9157.38,7211.97 L 9123.35,7192.34 L 9123,6292.8 L 9157,6292.8 L 9157.38,7211.97 Z " />
<path stroke="none" fill="#000000" transform="matrix(0.05 0 0 0.05 -367 -312)" d="M 10922.3,8919.47 L 10905.3,8890.02 L 11493.3,8550.48 L 11510.3,8579.92 L 10922.3,8919.47 Z " />
</svg>
