<svg width="240" height="347" style="background-color:#ffffff00" xmlns="http://www.w3.org/2000/svg">
    <path d="m89.131 274.84 1.701.98v44.48l-1.701.98v-46.44ZM94.603 278.49h1.7v39.14h-1.7v-39.14Z"/>
    <path d="m89.131 321.28 1.701-.98 38.528 22.25v1.965L89.131 321.28ZM129.36 344.515v-1.965l38.54-22.25.83.48.17.87-39.54 22.865ZM129.785 337.945l-.85-1.47 33.915-19.58.85 1.47-33.915 19.58ZM169.555 320.075l-.825.705-.83-.48v-44.48l.83-.48.83.48-.005 44.255Z"/>
    <path d="M168.73 274.38v.96l-.83.48-38.54-22.25v-.96l.832-.48 38.538 22.25ZM163.7 277.755l-.85 1.47-33.915-19.58.85-1.47 33.915 19.58Z"/>
    <path d="m128.528 252.13.832.48v.96l-38.528 22.25-1.701-.98 39.397-22.71ZM169.56 275.82l-.83-.48v-.96l38.53-22.25.83.48-.205 1.07-38.325 22.14Z"/>
    <path d="m208.93 252.315-.84.295-.83-.48v-44.49l1.7-.98-.03 45.655Z"/>
    <path d="m208.96 206.66-1.7.98-38.53-22.24v-.96l1.435-.103 38.795 22.323ZM167.905 183.956l.825.484v.96l-38.538 22.24-.832-.48v-.96l38.545-22.244Z"/>
    <path d="m128.528 207.64.832-.48.832.48v44.49l-.832.48-.832-.48v-44.49Z"/>
    <text transform="matrix(.05 0 0 .05 160.064 147.597)" font-size="480" font-family="Helvetica">
N</text>
    <path d="m169.52 183.256-.79 1.184-.825-.484-.025-34.423h1.7l-.06 33.723ZM159.115 132.457l-.85 1.473-28.898-16.712-.001-1.965 29.749 17.204ZM129.366 115.253v1.965L90.833 139.47 90 138.99l-.048-.935 39.414-22.802ZM89.166 139.416l.834-.426.832.48v44.49l-1.701.982.035-45.526Z"/>
    <path d="m89.131 184.942 1.701-.982 38.528 22.24v.96l-.832.48-39.397-22.698ZM95.029 182.027l.85-1.472 33.906 19.57-.85 1.475-33.906-19.573ZM207.885 253.68l.205-1.07.84-.295 28.52 35.785-2.055.15-27.51-34.57ZM206.085 260.21l1.33-1.055 23.06 28.975-1.33 1.06-23.06-28.98Z"/>
    <text transform="matrix(.05 0 0 .05 205.004 336.137)" font-size="480" font-family="Helvetica">
NH</text>
    <path d="m168.9 321.65-.17-.87.825-.705 35.575 5.315-.25 1.68-35.98-5.42ZM220.85 316.795l-1.475-.85 16.02-27.695 2.055-.15-16.6 28.695ZM89.952 138.055l.048.935-.834.425-39.61-18.348 1.659-10.461 38.737 27.449Z"/>
    <text transform="matrix(.05 0 0 .05 199.424 170.317)" font-size="480" font-family="Helvetica">
H</text>
    <path d="m170.165 184.337-1.435.103.79-1.184 25.57-19.686 4.895 8.469-29.82 12.298Z"/>
    <text transform="matrix(.05 0 0 .05 41.974 79.417)" font-size="480" font-family="Helvetica">
N</text>
    <path d="m51.215 110.606-1.659 10.461.234-39.714h1.7l-.275 29.253Z"/>
    <text transform="matrix(.05 0 0 .05 1.946 147.597)" font-size="480" font-family="Helvetica">
O</text>
    <path d="m52.942 117.099.85 1.472-31.384 18.124-.85-1.472 31.384-18.125ZM50.215 112.375l.85 1.472-31.385 18.125-.85-1.473 31.385-18.124ZM61.027 65.796l-.85-1.473 28.99-16.706 1.702.982-29.842 17.197ZM41.024 64.278l-.85 1.472-29.763-17.151 1.702-.982 28.911 16.661ZM12.113 47.617l-1.702.982.019-45.959h1.7l-.017 44.977ZM90.869 48.599l-1.701-.982L89.15 2.64h1.7l.019 45.959ZM179.115 133.974l-.85-1.473 29.4-16.977.85 1.472-29.4 16.978Z"/>
</svg>
