<svg width="256" height="113" viewBox="0 0 205 90" version="1.1" xmlns="http://www.w3.org/2000/svg">
<path d="M99.7 40.5V70.2L74.1 84.8 48.5 70.2V40.5L74.1 25.8 99.7 40.5l25.6-14.7 25.5 14.7V70.2m0-29.7 14.9-8.6m21.5 0 15 8.6m-153.7 0-17.9-5.9m-17 6.2L3 55.2 14.5 71m15.7 5 18.3-5.8m5.3-3.1V53.8 43.6M74.1 31.9 94.4 43.6m0 23.4L74 78.7" fill="none" stroke="#000" stroke-width="1.2"/>
<g font-family="Liberation Sans" font-size="21">
<text x="12.5" y="39">O</text>
<text x="12.5" y="87">O</text>
<text x="169" y="16.4">H</text>
<text x="169" y="33.8">N</text>
</g>
</svg>