<?xml version="1.0" encoding="UTF-8" standalone="no"?>
<!DOCTYPE svg PUBLIC "-//W3C//DTD SVG 1.1//EN" "http://www.w3.org/Graphics/SVG/1.1/DTD/svg11.dtd">
<svg xmlns="http://www.w3.org/2000/svg" version="1.1" viewBox="0 0 131.81 72.082">
 <g font-family="Arial" fill="#000000">
  <g font-size="12.598px" xml:space="preserve" >
   <text y="11.317511" x="13.247885">O</text>
   <text y="47.002197" x="13.247885">O</text>
   <text y="65.29435" x="44.142071">O</text>
   <text y="11.017639" x="106.83028">N</text>
   <text y="11.017639" x="115.82858">H</text>
  </g>
  <text xml:space="preserve" font-size="9.8981px" y="15.905693" x="124.82689">2</text>
 </g>
 <g stroke-linejoin="round" stroke="#000" stroke-linecap="round" stroke-width=".89983px" fill="none">
  <path d="m64.838 33.647v-17.992"/>
  <path d="m49.241 6.6589 15.597 8.9961"/>
  <path d="m48.941 10.257 12.898 7.497"/>
  <path d="m49.241 42.643 15.597-8.9961"/>
  <path d="m48.941 39.045 12.898-7.497"/>
  <path d="m33.644 15.655 15.597-8.9961"/>
  <path d="m33.644 33.647 15.597 8.9961"/>
  <path d="m33.644 33.647v-17.992"/>
  <path d="m36.943 32.148v-14.994"/>
  <path d="m33.644 15.655-9.298-5.398"/>
  <path d="m33.644 33.647-9.2983 5.3977"/>
  <path d="m49.241 42.643v11.695"/>
  <path d="m42.942 64.234-9.2982 5.3977"/>
  <path d="m12.048 39.045-9.5981-5.398"/>
  <path d="m12.048 10.257-9.5981 5.398"/>
  <path d="m64.838 15.655 15.597-8.9961"/>
  <path d="m80.435 6.6589 15.597 8.9961"/>
  <path d="m96.032 15.655 9.598-5.6975"/>
 </g>
</svg>
