<?xml version="1.0" encoding="UTF-8"?>
<svg width="274pt" xmlns:xlink="http://www.w3.org/1999/xlink" xmlns="http://www.w3.org/2000/svg" height="211pt" viewBox="0 0 274 211" >
 <g transform="translate(62.1992, 166.25)" style="fill:#161413; fill-rule:nonzero; stroke:none; stroke-width:1.7; stroke-linecap:butt; stroke-linejoin:miter; stroke-dasharray:none;" >
  <path d="M35.2002 19.35 C35.2002 19.35 35.2002 21.3 35.2002 21.3 C35.2002 21.3 0 1 0 1 C0 1 1.7002 0 1.7002 0 C1.7002 0 35.2002 19.35 35.2002 19.35 Z" />
 </g>
 <g transform="translate(68.5996, 162.6)" style="fill:#161413; fill-rule:nonzero; stroke:none; stroke-width:1.7; stroke-linecap:butt; stroke-linejoin:miter; stroke-dasharray:none;" >
  <path d="M29.25 16.349 C29.25 16.349 28.4004 17.849 28.4004 17.849 C28.4004 17.849 0 1.45 0 1.45 C0 1.45 0.8496 0 0.8496 0 C0.8496 0 29.25 16.349 29.25 16.349 Z" />
 </g>
 <g transform="translate(97.3994, 166.25)" style="fill:#161413; fill-rule:nonzero; stroke:none; stroke-width:1.7; stroke-linecap:butt; stroke-linejoin:miter; stroke-dasharray:none;" >
  <path d="M33.4996 0 C33.4996 0 34.3506 0.5 34.3506 0.5 C34.3506 0.5 34.4506 1.449 34.4506 1.449 C34.4506 1.449 0 21.3 0 21.3 C0 21.3 0 19.35 0 19.35 C0 19.35 33.4996 0 33.4996 0 Z" />
 </g>
 <g transform="translate(130.899, 127.1)" style="fill:#161413; fill-rule:nonzero; stroke:none; stroke-width:1.7; stroke-linecap:butt; stroke-linejoin:miter; stroke-dasharray:none;" >
  <path d="M0 0.5 C0 0.5 0.851 0 0.851 0 C0.851 0 1.701 0.599 1.701 0.599 C1.701 0.599 1.701 39.049 1.701 39.049 C1.701 39.049 0.851 39.65 0.851 39.65 C0.851 39.65 0 39.15 0 39.15 C0 39.15 0 0.5 0 0.5 Z" />
 </g>
 <g transform="translate(124.949, 130.55)" style="fill:#161413; fill-rule:nonzero; stroke:none; stroke-width:1.7; stroke-linecap:butt; stroke-linejoin:miter; stroke-dasharray:none;" >
  <path d="M0 0 C0 0 1.7 0 1.7 0 C1.7 0 1.7 32.75 1.7 32.75 C1.7 32.75 0 32.75 0 32.75 C0 32.75 0 0 0 0 Z" />
 </g>
 <g transform="translate(97.3994, 106.8)" style="fill:#161413; fill-rule:nonzero; stroke:none; stroke-width:1.7; stroke-linecap:butt; stroke-linejoin:miter; stroke-dasharray:none;" >
  <path d="M0 1.45 C0 1.45 0 0.45 0 0.45 C0 0.45 0.8506 0 0.8506 0 C0.8506 0 34.4506 19.349 34.4506 19.349 C34.4506 19.349 34.3506 20.3 34.3506 20.3 C34.3506 20.3 33.4996 20.8 33.4996 20.8 C33.4996 20.8 0 1.45 0 1.45 Z" />
 </g>
 <g transform="translate(62.1992, 106.8)" style="fill:#161413; fill-rule:nonzero; stroke:none; stroke-width:1.7; stroke-linecap:butt; stroke-linejoin:miter; stroke-dasharray:none;" >
  <path d="M1.7002 20.8 C1.7002 20.8 0 19.8 0 19.8 C0 19.8 34.3506 0 34.3506 0 C34.3506 0 35.2002 0.45 35.2002 0.45 C35.2002 0.45 35.2002 1.45 35.2002 1.45 C35.2002 1.45 1.7002 20.8 1.7002 20.8 Z" />
 </g>
 <g transform="translate(68.5996, 113.399)" style="fill:#161413; fill-rule:nonzero; stroke:none; stroke-width:1.7; stroke-linecap:butt; stroke-linejoin:miter; stroke-dasharray:none;" >
  <path d="M0.8496 17.851 C0.8496 17.851 0 16.401 0 16.401 C0 16.401 28.4004 0 28.4004 0 C28.4004 0 29.25 1.5 29.25 1.5 C29.25 1.5 0.8496 17.851 0.8496 17.851 Z" />
 </g>
 <g transform="translate(62.1992, 126.6)" style="fill:#161413; fill-rule:nonzero; stroke:none; stroke-width:1.7; stroke-linecap:butt; stroke-linejoin:miter; stroke-dasharray:none;" >
  <path d="M1.7002 39.65 C1.7002 39.65 0 40.65 0 40.65 C0 40.65 0 0 0 0 C0 0 1.7002 1 1.7002 1 C1.7002 1 1.7002 39.65 1.7002 39.65 Z" />
 </g>
 <g transform="translate(162.574, 171.004)" style="fill:#161413; fill-rule:evenodd; stroke:none; stroke-width:1.7; stroke-linecap:butt; stroke-linejoin:miter; stroke-dasharray:none;" >
  <path d="M13.68 0 C13.68 0 11.568 0 11.568 0 C11.568 0 11.568 14.304 11.568 14.304 C11.568 14.304 2.424 0 2.424 0 C2.424 0 0 0 0 0 C0 0 0 17.496 0 17.496 C0 17.496 2.112 17.496 2.112 17.496 C2.112 17.496 2.112 3.312 2.112 3.312 C2.112 3.312 11.16 17.496 11.16 17.496 C11.16 17.496 13.68 17.496 13.68 17.496 C13.68 17.496 13.68 0 13.68 0 Z" />
 </g>
 <g transform="translate(162.742, 191.004)" style="fill:#161413; fill-rule:evenodd; stroke:none; stroke-width:1.7; stroke-linecap:butt; stroke-linejoin:miter; stroke-dasharray:none;" >
  <path d="M11.232 9.528 C11.232 9.528 11.232 17.496 11.232 17.496 C11.232 17.496 13.464 17.496 13.464 17.496 C13.464 17.496 13.464 0 13.464 0 C13.464 0 11.232 0 11.232 0 C11.232 0 11.232 7.56 11.232 7.56 C11.232 7.56 2.232 7.56 2.232 7.56 C2.232 7.56 2.232 0 2.232 0 C2.232 0 0 0 0 0 C0 0 0 17.496 0 17.496 C0 17.496 2.256 17.496 2.256 17.496 C2.256 17.496 2.256 9.528 2.256 9.528 C2.256 9.528 11.232 9.528 11.232 9.528 Z" />
 </g>
 <g transform="translate(131.75, 166.149)" style="fill:#161413; fill-rule:nonzero; stroke:none; stroke-width:1.7; stroke-linecap:butt; stroke-linejoin:miter; stroke-dasharray:none;" >
  <path d="M28.05 8.8 C28.05 8.8 27.5 10.451 27.5 10.451 C27.5 10.451 0.1 1.55 0.1 1.55 C0.1 1.55 0 0.601 0 0.601 C0 0.601 0.85 0 0.85 0 C0.85 0 28.05 8.8 28.05 8.8 Z" />
 </g>
 <g transform="translate(176.1, 146.899)" style="fill:#161413; fill-rule:nonzero; stroke:none; stroke-width:1.7; stroke-linecap:butt; stroke-linejoin:miter; stroke-dasharray:none;" >
  <path d="M15.599 0 C15.599 0 17.7 0 17.7 0 C17.7 0 1.4 22.5 1.4 22.5 C1.4 22.5 0 21.5 0 21.5 C0 21.5 15.599 0 15.599 0 Z" />
 </g>
 <g transform="translate(169.149, 114.699)" style="fill:#161413; fill-rule:nonzero; stroke:none; stroke-width:1.7; stroke-linecap:butt; stroke-linejoin:miter; stroke-dasharray:none;" >
  <path d="M0 1.151 C0 1.151 0.3 0.151 0.3 0.151 C0.3 0.151 1.25 0 1.25 0 C1.25 0 24.651 32.2 24.651 32.2 C24.651 32.2 22.55 32.2 22.55 32.2 C22.55 32.2 0 1.151 0 1.151 Z" />
 </g>
 <g transform="translate(166.5, 121.35)" style="fill:#161413; fill-rule:nonzero; stroke:none; stroke-width:1.7; stroke-linecap:butt; stroke-linejoin:miter; stroke-dasharray:none;" >
  <path d="M0 1 C0 1 1.35 0 1.35 0 C1.35 0 19.6 25.049 19.6 25.049 C19.6 25.049 18.199 26.049 18.199 26.049 C18.199 26.049 0 1 0 1 Z" />
 </g>
 <g transform="translate(131.75, 114.149)" style="fill:#161413; fill-rule:nonzero; stroke:none; stroke-width:1.7; stroke-linecap:butt; stroke-linejoin:miter; stroke-dasharray:none;" >
  <path d="M0.85 13.55 C0.85 13.55 0 12.951 0 12.951 C0 12.951 0.1 12 0.1 12 C0.1 12 37.05 0 37.05 0 C37.05 0 37.699 0.701 37.699 0.701 C37.699 0.701 37.399 1.701 37.399 1.701 C37.399 1.701 0.85 13.55 0.85 13.55 Z" />
 </g>
 <g transform="translate(168.8, 76.3994)" style="fill:#161413; fill-rule:nonzero; stroke:none; stroke-width:1.7; stroke-linecap:butt; stroke-linejoin:miter; stroke-dasharray:none;" >
  <path d="M12.25 0 C12.25 0 13.55 1.4502 13.55 1.4502 C13.55 1.4502 1.599 38.2996 1.599 38.2996 C1.599 38.2996 0.649 38.4506 0.649 38.4506 C0.649 38.4506 0 37.7496 0 37.7496 C0 37.7496 12.25 0 12.25 0 Z" />
 </g>
 <g transform="translate(181.05, 68.1494)" style="fill:#161413; fill-rule:nonzero; stroke:none; stroke-width:1.7; stroke-linecap:butt; stroke-linejoin:miter; stroke-dasharray:none;" >
  <path d="M38.8 0 C38.8 0 40.099 1.4502 40.099 1.4502 C40.099 1.4502 1.3 9.7002 1.3 9.7002 C1.3 9.7002 0 8.25 0 8.25 C0 8.25 38.8 0 38.8 0 Z" />
 </g>
 <g transform="translate(225.992, 3.25391)" style="fill:#161413; fill-rule:evenodd; stroke:none; stroke-width:1.7; stroke-linecap:butt; stroke-linejoin:miter; stroke-dasharray:none;" >
  <path d="M11.232 9.52829 C11.232 9.52829 11.232 17.4961 11.232 17.4961 C11.232 17.4961 13.464 17.4961 13.464 17.4961 C13.464 17.4961 13.464 0 13.464 0 C13.464 0 11.232 0 11.232 0 C11.232 0 11.232 7.56059 11.232 7.56059 C11.232 7.56059 2.232 7.56059 2.232 7.56059 C2.232 7.56059 2.232 0 2.232 0 C2.232 0 0 0 0 0 C0 0 0 17.4961 0 17.4961 C0 17.4961 2.256 17.4961 2.256 17.4961 C2.256 17.4961 2.256 9.52829 2.256 9.52829 C2.256 9.52829 11.232 9.52829 11.232 9.52829 Z" />
 </g>
 <g transform="translate(225.824, 23.2539)" style="fill:#161413; fill-rule:evenodd; stroke:none; stroke-width:1.7; stroke-linecap:butt; stroke-linejoin:miter; stroke-dasharray:none;" >
  <path d="M13.68 0 C13.68 0 11.568 0 11.568 0 C11.568 0 11.568 14.3037 11.568 14.3037 C11.568 14.3037 2.424 0 2.424 0 C2.424 0 0 0 0 0 C0 0 0 17.4961 0 17.4961 C0 17.4961 2.112 17.4961 2.112 17.4961 C2.112 17.4961 2.112 3.3125 2.112 3.3125 C2.112 3.3125 11.16 17.4961 11.16 17.4961 C11.16 17.4961 13.68 17.4961 13.68 17.4961 C13.68 17.4961 13.68 0 13.68 0 Z" />
 </g>
 <g transform="translate(219.85, 43.4492)" style="fill:#161413; fill-rule:nonzero; stroke:none; stroke-width:1.7; stroke-linecap:butt; stroke-linejoin:miter; stroke-dasharray:none;" >
  <path d="M8 0 C8 0 9.65 0.5 9.65 0.5 C9.65 0.5 1.299 26.1504 1.299 26.1504 C1.299 26.1504 0 24.7002 0 24.7002 C0 24.7002 8 0 8 0 Z" />
 </g>
 <g transform="translate(204.1, 2.5498)" style="fill:#161413; fill-rule:nonzero; stroke:none; stroke-width:1.7; stroke-linecap:butt; stroke-linejoin:miter; stroke-dasharray:none;" >
  <path d="M0 1.2002 C0 1.2002 1.2 0 1.2 0 C1.2 0 18.75 17.5 18.75 17.5 C18.75 17.5 17.549 18.7002 17.549 18.7002 C17.549 18.7002 0 1.2002 0 1.2002 Z" />
 </g>
 <g transform="translate(88.9121, 59.2158)" style="fill:#161413; fill-rule:evenodd; stroke:none; stroke-width:1.7; stroke-linecap:butt; stroke-linejoin:miter; stroke-dasharray:none;" >
  <path d="M8.4238 0 C3.4082 0 0 3.6963 0 9.168 C0 14.6406 3.4082 18.336 8.4483 18.336 C10.5596 18.336 12.4559 17.6885 13.8719 16.4883 C15.7679 14.8799 16.8959 12.168 16.8959 9.3125 C16.8959 3.6719 13.5599 0 8.4238 0 Z M8.4238 1.9678 C12.2159 1.9678 14.6639 4.8487 14.6639 9.2647 C14.6639 13.4883 12.1439 16.3682 8.4483 16.3682 C4.7275 16.3682 2.2315 13.4883 2.2315 9.168 C2.2315 4.8487 4.7275 1.9678 8.4238 1.9678 Z" />
 </g>
 <g transform="translate(96.5498, 79.6494)" style="fill:#161413; fill-rule:nonzero; stroke:none; stroke-width:1.7; stroke-linecap:butt; stroke-linejoin:miter; stroke-dasharray:none;" >
  <path d="M0 0 C0 0 1.7002 0 1.7002 0 C1.7002 0 1.7002 27.1506 1.7002 27.1506 C1.7002 27.1506 0.8496 27.6006 0.8496 27.6006 C0.8496 27.6006 0 27.1506 0 27.1506 C0 27.1506 0 0 0 0 Z" />
 </g>
 <g transform="translate(242.149, 22.0996)" style="fill:#161413; fill-rule:nonzero; stroke:none; stroke-width:1.7; stroke-linecap:butt; stroke-linejoin:miter; stroke-dasharray:none;" >
  <path d="M29.201 0 C29.201 0 29.55 1.6504 29.55 1.6504 C29.55 1.6504 0.351 7.9004 0.351 7.9004 C0.351 7.9004 0 6.2002 0 6.2002 C0 6.2002 29.201 0 29.201 0 Z" />
 </g>
 <g transform="translate(56.9336, 39.7539)" style="fill:#161413; fill-rule:evenodd; stroke:none; stroke-width:1.7; stroke-linecap:butt; stroke-linejoin:miter; stroke-dasharray:none;" >
  <path d="M2.2324 10.0801 C2.2324 10.0801 7.7285 10.0801 7.7285 10.0801 C9.0967 10.0801 10.1768 9.6719 11.1123 8.832 C12.168 7.8721 12.624 6.7441 12.624 5.1357 C12.624 1.8477 10.6807 0 7.2246 0 C7.2246 0 0 0 0 0 C0 0 0 17.4961 0 17.4961 C0 17.4961 2.2324 17.4961 2.2324 17.4961 C2.2324 17.4961 2.2324 10.0801 2.2324 10.0801 Z M2.2324 8.1123 C2.2324 8.1123 2.2324 1.9678 2.2324 1.9678 C2.2324 1.9678 6.8887 1.9678 6.8887 1.9678 C9.0244 1.9678 10.2969 3.1201 10.2969 5.04 C10.2969 6.96 9.0244 8.1123 6.8887 8.1123 C6.8887 8.1123 2.2324 8.1123 2.2324 8.1123 Z" />
 </g>
 <g transform="translate(68.9492, 50.6992)" style="fill:#161413; fill-rule:nonzero; stroke:none; stroke-width:1.7; stroke-linecap:butt; stroke-linejoin:miter; stroke-dasharray:none;" >
  <path d="M0 1.5 C0 1.5 0.8506 0 0.8506 0 C0.8506 0 19.8506 10.9502 19.8506 10.9502 C19.8506 10.9502 19 12.4502 19 12.4502 C19 12.4502 0 1.5 0 1.5 Z" />
 </g>
 <g transform="translate(34.6621, 73.7158)" style="fill:#161413; fill-rule:evenodd; stroke:none; stroke-width:1.7; stroke-linecap:butt; stroke-linejoin:miter; stroke-dasharray:none;" >
  <path d="M8.4238 0 C3.4082 0 0 3.6963 0 9.168 C0 14.6406 3.4082 18.336 8.4483 18.336 C10.5596 18.336 12.4561 17.6885 13.8721 16.4883 C15.7676 14.8799 16.8955 12.168 16.8955 9.3125 C16.8955 3.6719 13.5596 0 8.4238 0 Z M8.4238 1.9678 C12.2158 1.9678 14.6641 4.8487 14.6641 9.2647 C14.6641 13.4883 12.1436 16.3682 8.4483 16.3682 C4.7275 16.3682 2.2315 13.4883 2.2315 9.168 C2.2315 4.8487 4.7275 1.9678 8.4238 1.9678 Z" />
 </g>
 <g transform="translate(50.2998, 60.75)" style="fill:#161413; fill-rule:nonzero; stroke:none; stroke-width:1.7; stroke-linecap:butt; stroke-linejoin:miter; stroke-dasharray:none;" >
  <path d="M1.5 14.25 C1.5 14.25 0 13.3994 0 13.3994 C0 13.3994 7.75 0 7.75 0 C7.75 0 9.25 0.8496 9.25 0.8496 C9.25 0.8496 1.5 14.25 1.5 14.25 Z" />
 </g>
 <g transform="translate(45.1494, 57.75)" style="fill:#161413; fill-rule:nonzero; stroke:none; stroke-width:1.7; stroke-linecap:butt; stroke-linejoin:miter; stroke-dasharray:none;" >
  <path d="M1.4502 14.2998 C1.4502 14.2998 0 13.4492 0 13.4492 C0 13.4492 7.75 0 7.75 0 C7.75 0 9.25 0.8496 9.25 0.8496 C9.25 0.8496 1.4502 14.2998 1.4502 14.2998 Z" />
 </g>
 <g transform="translate(74.4121, 5.21582)" style="fill:#161413; fill-rule:evenodd; stroke:none; stroke-width:1.7; stroke-linecap:butt; stroke-linejoin:miter; stroke-dasharray:none;" >
  <path d="M8.4238 0 C3.4082 0 0 3.69629 0 9.16798 C0 14.6406 3.4082 18.336 8.4483 18.336 C10.5596 18.336 12.4561 17.6885 13.8721 16.4883 C15.7676 14.8799 16.8955 12.168 16.8955 9.31248 C16.8955 3.67188 13.5596 0 8.4238 0 Z M8.4238 1.96777 C12.2158 1.96777 14.6641 4.84868 14.6641 9.26468 C14.6641 13.4883 12.1436 16.3682 8.4483 16.3682 C4.7275 16.3682 2.2315 13.4883 2.2315 9.16798 C2.2315 4.84868 4.7275 1.96777 8.4238 1.96777 Z" />
 </g>
 <g transform="translate(92.4482, 8.70801)" style="fill:#161413; fill-rule:evenodd; stroke:none; stroke-width:1.7; stroke-linecap:butt; stroke-linejoin:miter; stroke-dasharray:none;" >
  <path d="M0 0 C0 0 0 0.99023 0 0.99023 C0 0.99023 9.4318 0.99023 9.4318 0.99023 C9.4318 0.99023 9.4318 0 9.4318 0 C9.4318 0 0 0 0 0 Z" />
 </g>
 <g transform="translate(67.5996, 23.2998)" style="fill:#161413; fill-rule:nonzero; stroke:none; stroke-width:1.7; stroke-linecap:butt; stroke-linejoin:miter; stroke-dasharray:none;" >
  <path d="M8.6504 0 C8.6504 0 10.0996 0.8496 10.0996 0.8496 C10.0996 0.8496 1.4502 15.8496 1.4502 15.8496 C1.4502 15.8496 0 15 0 15 C0 15 8.6504 0 8.6504 0 Z" />
 </g>
 <g transform="translate(4.24219, 20.0039)" style="fill:#161413; fill-rule:evenodd; stroke:none; stroke-width:1.7; stroke-linecap:butt; stroke-linejoin:miter; stroke-dasharray:none;" >
  <path d="M11.2314 9.5283 C11.2314 9.5283 11.2314 17.4961 11.2314 17.4961 C11.2314 17.4961 13.4639 17.4961 13.4639 17.4961 C13.4639 17.4961 13.4639 0 13.4639 0 C13.4639 0 11.2314 0 11.2314 0 C11.2314 0 11.2314 7.5606 11.2314 7.5606 C11.2314 7.5606 2.23144 7.5606 2.23144 7.5606 C2.23144 7.5606 2.23144 0 2.23144 0 C2.23144 0 0 0 0 0 C0 0 0 17.4961 0 17.4961 C0 17.4961 2.25586 17.4961 2.25586 17.4961 C2.25586 17.4961 2.25586 9.5283 2.25586 9.5283 C2.25586 9.5283 11.2314 9.5283 11.2314 9.5283 Z" />
 </g>
 <g transform="translate(20.4121, 19.7158)" style="fill:#161413; fill-rule:evenodd; stroke:none; stroke-width:1.7; stroke-linecap:butt; stroke-linejoin:miter; stroke-dasharray:none;" >
  <path d="M8.4238 0 C3.4082 0 0 3.6963 0 9.168 C0 14.6406 3.4082 18.336 8.4483 18.336 C10.5596 18.336 12.4561 17.6885 13.8721 16.4883 C15.7676 14.8799 16.8955 12.168 16.8955 9.3125 C16.8955 3.6719 13.5596 0 8.4238 0 Z M8.4238 1.9678 C12.2158 1.9678 14.6641 4.8487 14.6641 9.2647 C14.6641 13.4883 12.1436 16.3682 8.4483 16.3682 C4.7275 16.3682 2.2315 13.4883 2.2315 9.168 C2.2315 4.8487 4.7275 1.9678 8.4238 1.9678 Z" />
 </g>
 <g transform="translate(38.0996, 32.8994)" style="fill:#161413; fill-rule:nonzero; stroke:none; stroke-width:1.7; stroke-linecap:butt; stroke-linejoin:miter; stroke-dasharray:none;" >
  <path d="M0 1.5 C0 1.5 0.8496 0 0.8496 0 C0.8496 0 15.2998 8.3506 15.2998 8.3506 C15.2998 8.3506 14.4502 9.7998 14.4502 9.7998 C14.4502 9.7998 0 1.5 0 1.5 Z" />
 </g>
 <g transform="translate(212, 31.25)" style="fill:none; stroke:#161413; stroke-width:1.35; stroke-linecap:butt; stroke-linejoin:miter; stroke-dasharray:none;" >
  <path d="M0 0 C0 0 8 0 8 0 " />
 </g>
 <g transform="translate(216, 27.25)" style="fill:none; stroke:#161413; stroke-width:1.35; stroke-linecap:butt; stroke-linejoin:miter; stroke-dasharray:none;" >
  <path d="M0 0 C0 0 0 8 0 8 " />
 </g>
</svg>
